<svg xmlns="http://www.w3.org/2000/svg" viewBox="1044.63 419.751 161.443 161.443" fill="none"><defs><linearGradient id="paint5_linear_16_2470" x1="1125.45" y1="476.324" x2="1125.45" y2="524.815" gradientUnits="userSpaceOnUse"><stop stop-color="#B2D4F7"/><stop offset="1" stop-color="#D9E2F3"/></linearGradient></defs><rect x="1044.63" y="419.751" width="161.443" height="161.443" rx="20" fill="#1A1B1D"/>
<path fill-rule="evenodd" clip-rule="evenodd" d="M1121.4 500.572L1111.07 506.615L1102.88 502.856L1101.19 506.554L1106.78 509.119L1103.71 510.917L1105.71 514.428L1108.78 512.63L1108.18 518.815L1112.18 519.19L1113.07 510.126L1123.4 504.08V516.234L1116.09 521.542L1118.46 524.813L1123.4 521.227V524.815H1127.44V521.227L1132.38 524.813L1134.76 521.542L1127.44 516.234V504.108L1137.8 510.168L1138.68 519.232L1142.69 518.858L1142.08 512.672L1145.16 514.47L1147.16 510.959L1144.09 509.161L1149.67 506.596L1147.99 502.898L1139.8 506.657L1129.4 500.572L1139.77 494.506L1148.01 498.29L1149.7 494.592L1144.05 492.002L1147.16 490.183L1145.16 486.672L1142.11 488.456L1142.71 482.33L1138.71 481.956L1137.83 490.96L1127.44 497.036V484.947L1134.8 479.604L1132.43 476.334L1127.44 479.954V476.324H1123.4V479.885L1118.51 476.334L1116.14 479.604L1123.4 484.878V497.064L1113.1 491.037L1112.21 481.914L1108.21 482.288L1108.82 488.532L1105.71 486.714L1103.71 490.225L1106.76 492.009L1101.22 494.55L1102.9 498.248L1111.04 494.513L1121.4 500.572Z" fill="url(#paint5_linear_16_2470)"/></svg>